<svg id="Ebene_1" data-name="Ebene 1" xmlns="http://www.w3.org/2000/svg" xmlns:xlink="http://www.w3.org/1999/xlink" viewBox="0 0 336.95 400.57"><defs><style>.cls-1{fill:#f8ec17;}.cls-2{fill:url(#Unbenannter_Verlauf_12);}.cls-3{fill:#045462;}.cls-4{fill:#fff;}.cls-5{fill:url(#Unbenannter_Verlauf_13);}</style><linearGradient id="Unbenannter_Verlauf_12" x1="334.61" y1="17.57" x2="237.58" y2="146.11" gradientTransform="translate(-20)" gradientUnits="userSpaceOnUse"><stop offset="0" stop-opacity="0.4"/><stop offset="1" stop-color="#1d1d1b" stop-opacity="0.1"/></linearGradient><linearGradient id="Unbenannter_Verlauf_13" x1="169.71" y1="92.43" x2="169.71" y2="111.71" gradientUnits="userSpaceOnUse"><stop offset="0" stop-opacity="0.2"/><stop offset="1" stop-opacity="0"/></linearGradient></defs><polygon class="cls-1" points="336.95 92.75 235.57 152.91 235.57 17.5 336.95 17.5 336.95 92.75"/><polygon class="cls-2" points="336.95 92.75 235.57 152.91 235.57 17.5 336.95 17.5 336.95 92.75"/><rect class="cls-3" x="-56.07" y="56.07" width="400.57" height="288.43" transform="translate(344.5 56.07) rotate(90)"/><polygon class="cls-4" points="95.14 136.53 77.21 220.52 122.02 220.52 131.67 175.34 235.48 175.34 243.76 136.53 95.14 136.53"/><polygon class="cls-4" points="165.89 199.57 156.19 245.01 52.04 245.01 43.76 283.82 192.72 283.82 210.7 199.57 165.89 199.57"/><polygon class="cls-1" points="336.89 92.75 50.99 92.75 67.2 17.5 336.89 17.5 336.89 92.75"/><path class="cls-3" d="M102.15,39.05h9.51c3.29,0,4.75.32,6,.87,3,1.33,4.85,4.39,4.85,8.28,0,4.34-2.47,7.68-6.08,8.69V57a12.07,12.07,0,0,1,.82,1.28l7,12.94h-3.61L113.4,57.66h-8.1V71.2h-3.15Zm10.79,15.78c3.89,0,6.35-2.52,6.35-6.54,0-2.65-1.05-4.62-2.92-5.63-1-.5-2.11-.77-4.58-.77H105.3V54.83Z"/><path class="cls-3" d="M130.44,39.05h3.2V60c0,5.53,3.57,8.87,9.1,8.87s9.15-3.34,9.15-9V39.05H155V60c0,7.13-5,11.75-12.25,11.75S130.44,67.13,130.44,60Z"/><path class="cls-3" d="M163.94,39.05H167l16.42,23.14c1.09,1.6,2.65,4.34,2.65,4.34h.09s-.28-2.65-.28-4.34V39.05h3.16V71.2H186L169.57,48.06c-1.1-1.6-2.65-4.34-2.65-4.34h-.09s.27,2.65.27,4.34V71.2h-3.16Z"/><path class="cls-3" d="M197.86,65.21a12.56,12.56,0,0,0,8.42,3.52c3.52,0,6.39-2.11,6.39-5.58,0-8.09-16-6-16-16,0-4.61,4.07-8.64,10-8.64a12.44,12.44,0,0,1,8.59,3.11l-1.55,2.66a10.93,10.93,0,0,0-7-2.75c-4.11,0-6.77,2.7-6.77,5.53,0,7.64,16,5.45,16,16,0,4.8-3.7,8.69-9.73,8.69A14.16,14.16,0,0,1,196,67.63Z"/><path class="cls-3" d="M249.43,38.5a16.24,16.24,0,0,1,16.36,16.42,16.37,16.37,0,1,1-32.73,0A16.24,16.24,0,0,1,249.43,38.5Zm0,30.32c7.22,0,13.07-6,13.07-13.9a13.08,13.08,0,1,0-26.15,0C236.35,62.78,242.15,68.82,249.43,68.82Z"/><path class="cls-3" d="M272.92,39.05H276l16.41,23.14c1.1,1.6,2.66,4.34,2.66,4.34h.09s-.27-2.65-.27-4.34V39.05H298V71.2H295L278.54,48.06c-1.1-1.6-2.65-4.34-2.65-4.34h-.09s.27,2.65.27,4.34V71.2h-3.15Z"/><path class="cls-4" d="M43.76,353.18a12.44,12.44,0,0,0,9,3.61c5.3,0,8.55-3.41,8.55-7.63,0-9.27-14.09-7.34-14.09-14.05,0-2.49,2.33-4.86,5.94-4.86a9.63,9.63,0,0,1,6.19,2.41l1.36-2.33a11,11,0,0,0-7.55-2.73c-5.22,0-8.79,3.54-8.79,7.59,0,8.75,14.09,6.95,14.09,14.05,0,3.05-2.53,4.9-5.62,4.9a11,11,0,0,1-7.39-3.09Z"/><polygon class="cls-4" points="80.21 356.31 82.98 356.31 82.98 330.57 93.1 330.57 93.1 328.08 70.05 328.08 70.05 330.57 80.21 330.57 80.21 356.31"/><polygon class="cls-4" points="121.61 356.31 124.54 356.31 114.18 328.08 111.21 328.08 100.85 356.31 103.78 356.31 112.65 331.02 112.73 331.02 121.61 356.31"/><path class="cls-4" d="M136.06,342c0,8.23,5.94,14.77,14.29,14.77a15,15,0,0,0,10.8-4.38l-1.6-2a13.23,13.23,0,0,1-9.16,3.77c-6.7,0-11.44-5.5-11.44-12.24s4.74-11.81,11.36-11.81a13.26,13.26,0,0,1,8.59,3.13l1.49-2s-3.41-3.66-10.16-3.66A14,14,0,0,0,136.06,342"/><polygon class="cls-4" points="173.39 342.82 181.46 356.31 184.71 356.31 175.72 341.49 175.72 341.41 184.15 328.09 180.98 328.09 173.39 340.33 172.57 341.6 173.39 342.82"/><rect class="cls-4" x="199.28" y="327.6" width="7.03" height="28.7"/><polygon class="cls-4" points="219.31 327.6 219.31 333.63 228.02 333.63 228.02 356.31 235.05 356.31 235.05 333.63 243.76 333.63 243.76 327.6 219.31 327.6"/><rect class="cls-5" x="50.99" y="92.75" width="237.44" height="19.72"/></svg>