<svg id="Ebene_1" data-name="Ebene 1" xmlns="http://www.w3.org/2000/svg" viewBox="0 0 500 500"><defs><style>.cls-1{fill:#fff;}.cls-2{fill:#045462;}</style></defs><polygon class="cls-1" points="500 212.45 287.55 0 0 0 500 500 500 212.45"/><path class="cls-2" d="M173.56,94.65a20.42,20.42,0,0,0,6.2,14.58c6.14,6.14,13.87,6,18.76,1.07,10.76-10.76-7.82-24.87,0-32.65,2.88-2.88,8.33-2.93,12.52,1.26a15.78,15.78,0,0,1,4.38,10l4.28-1.12s.1-6.24-5.58-11.92c-6.06-6.06-14.3-6.1-19-1.4-10.15,10.15,8.29,24.4,0,32.64-3.53,3.54-8.61,2.75-12.2-.84a18,18,0,0,1-5-12.15Z"/><polygon class="cls-2" points="212.21 140.56 215.43 143.78 245.27 113.93 257.01 125.66 259.89 122.78 233.17 96.05 230.28 98.94 242.06 110.72 212.21 140.56"/><polygon class="cls-2" points="260.23 188.58 263.63 191.98 284.35 147.23 280.9 143.78 236.15 164.5 239.55 167.9 279.18 148.86 279.27 148.95 260.23 188.58"/><path class="cls-2" d="M293.57,188.77c-9.55,9.54-10.24,24-.56,33.71a24.68,24.68,0,0,0,17.6,7.45l.42-4.14a21.65,21.65,0,0,1-15-6.24c-7.78-7.78-6.89-19.65.93-27.48s19.18-8.19,26.87-.51a21.81,21.81,0,0,1,6.33,13.6l4.1-.65s.28-8.2-7.55-16c-9.35-9.36-23.65-9.22-33.15.28"/><polygon class="cls-2" points="335.94 232.99 329.65 258 333.42 261.77 340.17 234.16 340.26 234.07 365.5 228.38 361.82 224.71 338.82 230.11 336.4 230.63 335.94 232.99"/><rect class="cls-2" x="347.5" y="260.34" width="47.09" height="11.52" transform="translate(-79.49 340.31) rotate(-45)"/><polygon class="cls-2" points="406.84 268.61 399.86 275.59 409.96 285.7 383.65 312.01 391.8 320.15 418.11 293.85 428.22 303.95 435.2 296.96 406.84 268.61"/><path class="cls-2" d="M295,71.59l6.49,6.49c2.24,2.24,3,3.46,3.52,4.71,1.16,3,.31,6.29-2.34,8.94-3,3-6.92,3.56-10.07,1.78l-.06.06a11.74,11.74,0,0,1-.31,1.44l-4.06,13.59-2.46-2.46L290,92l-5.52-5.53-9.23,9.23-2.15-2.15Zm-3.4,18.12c2.66,2.65,6.05,2.62,8.8-.13,1.81-1.81,2.43-3.86,1.84-5.83a9,9,0,0,0-2.59-3.65l-4.43-4.42-8.82,8.82Z"/><path class="cls-2" d="M314.32,90.89l2.18,2.18-14.25,14.25c-3.77,3.77-3.62,8.48.16,12.25s8.51,4,12.34.13l14.19-14.19,2.15,2.15-14.28,14.28c-4.86,4.87-11.41,4.62-16.37-.34s-5.27-11.57-.4-16.43Z"/><path class="cls-2" d="M337.17,113.73l2.09,2.09-4.59,27c-.34,1.84-1.15,4.77-1.15,4.77l.06.06s1.62-2,2.77-3.15l15.78-15.78,2.15,2.15-21.92,21.92-2.09-2.09,4.59-27c.34-1.84,1.15-4.77,1.15-4.77l-.06-.06s-1.62,2-2.77,3.15L317.4,137.81l-2.16-2.15Z"/><path class="cls-2" d="M342.46,154.7a12.12,12.12,0,0,0,3.34,8.14c2.4,2.4,5.79,2.93,8.16.56,5.52-5.52-6.82-15.06,0-21.86,3.15-3.15,8.67-3.12,12.73.94a12,12,0,0,1,3.74,8l-2.87.75a10.54,10.54,0,0,0-2.93-6.67c-2.81-2.81-6.46-2.78-8.39-.85-5.21,5.21,7.24,14.66,0,21.86-3.27,3.28-8.45,3.4-12.56-.71a13.69,13.69,0,0,1-4.15-9.77Z"/><path class="cls-2" d="M395.84,171.66a15.66,15.66,0,0,1,0,22.35,15.79,15.79,0,1,1-22.32-22.32A15.67,15.67,0,0,1,395.84,171.66Zm-20.68,20.67c4.93,4.92,13,4.8,18.4-.56a12.62,12.62,0,1,0-17.84-17.84C370.36,179.29,370.2,187.37,375.16,192.33Z"/><path class="cls-2" d="M411.48,188.05l2.09,2.09-4.59,27c-.34,1.84-1.15,4.77-1.15,4.77l.06.06s1.63-2,2.78-3.14L426.45,203l2.15,2.15-21.92,21.92L404.59,225l4.58-27c.35-1.84,1.15-4.78,1.15-4.78l-.06-.06s-1.62,2-2.77,3.15l-15.78,15.78L389.56,210Z"/></svg>